<?xml version="1.0" encoding="UTF-8"?>
<svg version="1.1" xmlns="http://www.w3.org/2000/svg" width="24" height="24">
	<path d="M0 0 C5.28 0 10.56 0 16 0 C16 7.92 16 15.84 16 24 C10.72 24 5.44 24 0 24 C0 16.08 0 8.16 0 0 Z M1 1 C1 2.98 1 4.96 1 7 C2.32 6.67 3.64 6.34 5 6 C4.01 6 3.02 6 2 6 C2 4.68 2 3.36 2 2 C3.32 2 4.64 2 6 2 C6.33 3.32 6.66 4.64 7 6 C7.33 5.67 7.66 5.34 8 5 C10.32817964 4.63239269 12.6618385 4.29758419 15 4 C15 3.01 15 2.02 15 1 C10.38 1 5.76 1 1 1 Z M8 7 C5.69 7.33 3.38 7.66 1 8 C1 12.95 1 17.9 1 23 C4.96 23 8.92 23 13 23 C13 17.06 13 11.12 13 5 C10.67642489 4.81509993 10.67642489 4.81509993 8 7 Z M14 5 C15 7 15 7 15 7 Z M14 8 C14 11.96 14 15.92 14 20 C14.33 20 14.66 20 15 20 C15 16.04 15 12.08 15 8 C14.67 8 14.34 8 14 8 Z M14 21 C15 23 15 23 15 23 Z " fill="#f1f1f1" transform="translate(4,0)"/>
	<path d="M0 0 C1.98 0 3.96 0 6 0 C6 0.33 6 0.66 6 1 C4.02 1 2.04 1 0 1 C0 0.67 0 0.34 0 0 Z " fill="#f1f1f1" transform="translate(9,21)"/>
	<path d="M0 0 C0.66 0 1.32 0 2 0 C2 0.99 2 1.98 2 3 C1.34 3 0.68 3 0 3 C0 2.01 0 1.02 0 0 Z " fill="#f1f1f1" transform="translate(6,13)"/>
	<path d="" fill="#f1f1f1" transform="translate(0,0)"/>
	<path d="" fill="#f1f1f1" transform="translate(0,0)"/>
	<path d="" fill="#f1f1f1" transform="translate(0,0)"/>
</svg>
